<svg xmlns="http://www.w3.org/2000/svg" version="1.1" xmlns:xlink="http://www.w3.org/1999/xlink" width="2000" height="322" viewBox="0 0 2000 322"><svg xml:space="preserve" width="2000" height="322" data-version="2" data-id="lg_4wxfg4rJlB67bD053q" viewBox="0 0 553 89" x="0" y="0">
    <rect width="100%" height="100%" fill="transparent"></rect>
    <path d="M62.56 2.765h15.58v82.76H49.62L21.25 9.375h-.29v76.15H5.52V2.765h26.46l30.29 76.15h.29Z" paint-order="stroke"></path>
    <rect width="72.62" height="82.76" x="-36.31" y="-41.38" fill="none" rx="0" ry="0" transform="matrix(1 0 0 1 42.33 44.645)"></rect>
    <path d="M117.24 86.995q-10.43 0-16.97-4.48-6.55-4.49-9.71-11.54-3.16-7.06-3.3-14.7-.15-9.12 3.45-16.25 3.6-7.13 10.29-11.17 6.69-4.04 15.8-4.04 8.09 0 14.56 3.53 6.46 3.53 10.21 9.85 3.75 6.32 3.9 15.14v3.82h-43.96q0 8.38 4.19 12.86 4.19 4.49 11.25 4.49 5.59 0 9.33-2.8 3.75-2.79 4.49-7.35h14.55q-.59 6.32-4.12 11.47-3.52 5.14-9.55 8.16-6.03 3.01-14.41 3.01m-15.28-36.6h28.51q-.14-1.03-.58-3.24-.45-2.2-1.92-4.55-1.47-2.36-4.26-3.97-2.79-1.62-7.2-1.62t-7.2 1.47q-2.8 1.47-4.27 3.68-1.47 2.2-2.2 4.41-.74 2.2-.88 3.82" paint-order="stroke"></path>
    <rect width="58.257" height="62.18" x="-29.128" y="-31.09" fill="none" rx="0" ry="0" transform="matrix(1 0 0 1 116.842 56.405)"></rect>
    <path d="m148.55 85.525 22.05-31.16-20.87-29.26h16.46l13.82 20.58 13.82-20.58h16.61l-20.87 29.26 22.19 31.16H195.3l-15.29-22.2-14.99 22.2Z" paint-order="stroke"></path>
    <rect width="63.21" height="60.42" x="-31.605" y="-30.21" fill="none" rx="0" ry="0" transform="matrix(1 0 0 1 180.655 55.815)"></rect>
    <path d="M244.99 86.995q-10 0-16.83-3.97-6.84-3.97-10.22-10.95-3.38-6.98-3.38-15.95 0-9.11 3.38-16.1 3.38-6.98 10.22-10.95 6.83-3.97 16.97-3.97 14.85 0 22.57 8.53 7.72 8.53 7.72 22.49 0 8.67-3.24 15.73-3.23 7.06-9.99 11.1-6.77 4.04-17.2 4.04m0-12.64q6.61 0 10.07-2.79 3.45-2.8 4.63-7.13 1.17-4.34 1.17-8.75 0-4.7-1.17-8.97-1.18-4.26-4.63-7.13-3.46-2.86-10.07-2.86-6.47 0-9.93 2.86-3.45 2.87-4.7 7.13-1.25 4.27-1.25 8.97 0 4.41 1.25 8.75 1.25 4.33 4.7 7.13 3.46 2.79 9.93 2.79" paint-order="stroke"></path>
    <rect width="60.86" height="61.89" x="-30.43" y="-30.945" fill="none" rx="0" ry="0" transform="matrix(1 0 0 1 245.49 56.55)"></rect>
    <path d="M283.79 85.525v-60.42h13.97l1.18 17.64-.15 12.94v29.84Zm15-26.02-.44-13.38q0-3.08 1.17-6.68 1.18-3.61 3.9-6.84 2.72-3.23 7.13-5.37 4.41-2.13 10.88-2.13h2.2v16.76h-2.2q-6.32 0-10.73.96-4.41.95-6.99 3.01-2.57 2.06-3.75 5.44-1.17 3.38-1.17 8.23" paint-order="stroke"></path>
    <rect width="39.84" height="60.42" x="-19.92" y="-30.21" fill="none" rx="0" ry="0" transform="matrix(1 0 0 1 304.21 55.815)"></rect>
    <path d="M350.53 86.995q-8.23 0-13.37-3.9-5.15-3.89-7.43-10.87-2.28-6.99-2.28-16.1 0-9.26 2.36-16.32 2.35-7.05 7.42-10.95 5.07-3.89 13.3-3.89 5.29 0 8.9 1.47 3.6 1.47 5.88 3.52 2.27 2.06 3.45 4.05 1.18 1.98 1.62 3.16h.29v-12.06h15.44v60.42h-12.94l-2.5-9.85h-.29q-.3 1.03-1.62 2.87t-3.6 3.82q-2.28 1.98-5.88 3.31-3.6 1.32-8.75 1.32m6.18-12.64q5.44 0 8.52-2.35 3.09-2.36 4.27-6.55 1.17-4.18 1.17-9.18 0-5.44-1.25-9.48-1.25-4.05-4.26-6.33-3.01-2.27-8.45-2.27-5.74 0-8.9 2.5-3.16 2.49-4.41 6.54-1.25 4.04-1.25 9.04 0 5 1.25 9.11 1.25 4.12 4.41 6.54 3.16 2.43 8.9 2.43" paint-order="stroke"></path>
    <rect width="58.66" height="62.03" x="-29.33" y="-31.015" fill="none" rx="0" ry="0" transform="matrix(1 0 0 1 357.28 56.48)"></rect>
    <path d="m419.92 85.525 26.46-82.76h24.55l27.19 82.76H482.1l-23.23-76.44-23.08 76.44Zm17.78-23.37.15-11.62h41.9l.14 11.62Z" paint-order="stroke"></path>
    <rect width="78.2" height="82.76" x="-39.1" y="-41.38" fill="none" rx="0" ry="0" transform="matrix(1 0 0 1 459.52 44.645)"></rect>
    <path d="M504.59 85.525v-60.42h14.99v60.42Zm7.5-68.21q-4.86 0-6.55-2.5-1.69-2.5-1.69-5.73 0-3.23 1.69-5.66 1.69-2.42 6.55-2.42 4.99 0 6.54 2.42 1.54 2.43 1.54 5.66t-1.54 5.73q-1.55 2.5-6.54 2.5" paint-order="stroke"></path>
    <rect width="16.32" height="84.52" x="-8.16" y="-42.26" fill="none" rx="0" ry="0" transform="matrix(1 0 0 1 512.51 43.765)"></rect>
    <path fill="#FF4136" d="M537.81 85.525q-5.29 0-7.13-2.65-1.84-2.64-1.84-6.46 0-3.53 1.84-6.18 1.84-2.64 7.13-2.64 5 0 6.84 2.64 1.83 2.65 1.83 6.18 0 3.82-1.83 6.46-1.84 2.65-6.84 2.65" paint-order="stroke"></path>
    <rect width="17.64" height="17.93" x="-8.82" y="-8.965" fill="none" rx="0" ry="0" transform="matrix(1 0 0 1 538.16 77.06)"></rect>
</svg></svg>